<svg width="61" height="61" viewBox="0 0 61 61" fill="none" xmlns="http://www.w3.org/2000/svg">
<path d="M56.4102 42.9612L51.303 38.9785C48.7142 36.9593 45.0509 37.1125 42.6251 39.3243C41.6375 40.2247 40.7465 41.1095 40.2737 41.7275C40.2337 41.7797 40.1854 41.8219 40.1323 41.8571C40.1272 41.8606 40.1227 41.8653 40.1171 41.8689C38.304 42.9968 29.4717 35.0742 27.7319 33.2621C25.8606 31.4643 17.4684 22.0949 19.2688 20.7175C19.8867 20.2447 20.7709 19.3534 21.6715 18.3655C23.8828 15.9392 24.0355 12.275 22.0173 9.68607L18.0356 4.57774C17.7228 4.17665 17.3607 3.83268 16.9775 3.51944C16.9592 3.50418 16.9414 3.48893 16.9227 3.47423C16.7391 3.32724 16.5513 3.19028 16.3547 3.06456C16.3309 3.04886 16.306 3.03539 16.2821 3.02013C15.4411 2.4961 14.4987 2.16639 13.5154 2.05069C13.509 2.0498 13.5024 2.04891 13.4963 2.04802C12.7027 1.95716 11.8887 1.98978 11.0855 2.19289C8.99104 2.72226 1.84256 7.59274 2.00265 11.1651C2.04874 12.1942 2.72583 14.1291 3.77566 16.5592C6.14271 22.0368 9.12419 27.176 12.6171 31.9103C17.2538 38.2104 22.8058 43.7616 29.1063 48.397C33.8339 51.8833 38.9637 54.8603 44.4318 57.2239C46.8614 58.274 48.7957 58.9517 49.8247 58.9974C53.3964 59.1575 58.2652 52.0077 58.7949 49.9125C59.4478 47.3274 58.5124 44.6002 56.4102 42.9612Z" stroke="#00497C" stroke-width="3"/>
</svg>
