<svg width="33" height="33" viewBox="0 0 33 33" fill="none" xmlns="http://www.w3.org/2000/svg">
<g clip-path="url(#clip0_207_214)">
<path d="M23.398 0H9.60192C4.45128 0 0.275879 4.1754 0.275879 9.32605V23.674C0.275879 28.8246 4.45128 33 9.60192 33H23.3979C28.5486 33 32.724 28.8246 32.724 23.674V9.32605C32.724 4.1754 28.5486 0 23.398 0ZM3.5869 9.32605C3.5869 6.00922 6.2851 3.31102 9.60192 3.31102H23.3979C26.7147 3.31102 29.4129 6.00922 29.4129 9.32605V23.674C29.4129 26.9908 26.7147 29.689 23.3979 29.689H9.60192C6.2851 29.689 3.5869 26.9908 3.5869 23.674V9.32605Z" fill="white"/>
<path d="M16.4999 24.9981C21.1859 24.9981 24.9982 21.1859 24.9982 16.4999C24.9982 11.814 21.1859 8.00146 16.4999 8.00146C11.814 8.00146 8.00171 11.814 8.00171 16.4999C8.00171 21.1859 11.814 24.9981 16.4999 24.9981ZM16.4999 10.6503C19.7253 10.6503 22.3493 13.2744 22.3493 16.4999C22.3493 19.7254 19.7253 22.3496 16.4999 22.3496C13.2746 22.3496 10.6505 19.7254 10.6505 16.4999C10.6505 13.2744 13.2745 10.6503 16.4999 10.6503Z" fill="white"/>
<path d="M25.2467 9.65739C26.2981 9.65739 27.1505 8.80493 27.1505 7.75338C27.1505 6.70182 26.2981 5.84937 25.2467 5.84937C24.1952 5.84937 23.3428 6.70182 23.3428 7.75338C23.3428 8.80493 24.1952 9.65739 25.2467 9.65739Z" fill="white"/>
</g>
<defs>
<clipPath id="clip0_207_214">
<rect width="33" height="33" fill="white"/>
</clipPath>
</defs>
</svg>
