<svg width="58" height="47" viewBox="0 0 58 47" fill="none" xmlns="http://www.w3.org/2000/svg">
<path d="M52.9469 0H5.05301C2.26698 0 0 2.26708 0 5.05413V41.9374C0 44.7286 2.26698 47 5.05301 47H52.947C55.733 47 58 44.7286 58 41.9374V5.05413C57.9999 2.26708 55.7329 0 52.9469 0ZM4.27103 5.05413C4.27103 4.62741 4.62153 4.28046 5.0529 4.28046H52.9469C53.3735 4.28046 53.7199 4.62741 53.7199 5.05413V41.9374C53.7199 42.3729 53.3735 42.7279 52.9469 42.7279H5.05301C4.62153 42.7279 4.27115 42.3729 4.27115 41.9374L4.27103 5.05413Z" fill="#00497C"/>
<path d="M20.3972 24.2511C20.3099 24.3228 20.2303 24.4025 20.1427 24.4742C19.936 24.649 19.2444 25.2612 19.2444 25.2612C16.4694 27.6792 13.671 30.2078 10.92 32.7768L10.6576 33.0313L12.5975 35.3058C12.5975 35.3058 13.6312 34.4866 13.9732 34.2161C16.5252 32.204 19.0856 30.1127 21.5976 28.0049C22.1144 27.5836 22.6234 27.1543 23.1322 26.7169C23.4663 26.4466 23.7924 26.1601 24.1261 25.8817L27.4099 28.7604C27.4812 28.8241 27.5928 28.9118 27.6719 28.9592C27.6799 28.9671 27.6878 28.9671 27.6957 28.975C28.0697 29.2216 28.5307 29.3566 28.9998 29.3566C29.4689 29.3566 29.938 29.214 30.3198 28.975C30.4149 28.9118 30.5185 28.832 30.5902 28.7763L30.6614 28.7131L34.0165 25.8498C34.3665 26.1361 34.7166 26.4305 35.0741 26.7168C35.5511 27.1059 36.0281 27.5038 36.5131 27.8858C39.2163 30.0883 41.9117 32.2199 44.5273 34.216C44.7658 34.4067 45.6086 35.0508 45.6086 35.0508L47.1273 33.2776L46.8729 33.0312C44.1537 30.4144 41.3867 27.8459 38.6595 25.3885C38.3896 25.1499 38.1272 24.9033 37.8568 24.6649L37.6502 24.4816L36.7444 23.6694L36.6497 23.5821L36.8948 23.3684C37.5228 22.8275 38.1432 22.2871 38.7551 21.7379C41.1721 19.6306 43.597 17.452 45.9822 15.2408C46.3481 14.899 46.7142 14.5653 47.0796 14.2232L47.342 13.9766L46.3562 12.8232L45.4021 11.7021C45.4021 11.7021 44.3844 12.4975 44.0264 12.7833C41.5143 14.7641 38.946 16.8474 36.4021 18.9865C35.4719 19.7581 34.5492 20.545 33.6271 21.3249L31.4646 23.1617L28.984 25.3012L27.9742 24.458L25.8196 22.6606C25.6766 22.5416 24.2297 21.3566 24.2297 21.3566C23.315 20.6012 22.4088 19.8535 21.4867 19.106C18.7754 16.9031 16.0802 14.7715 13.4804 12.7832C13.2102 12.577 12.391 11.9485 12.391 11.9485L10.8724 13.7221L11.1268 13.9687C11.4849 14.3183 11.8503 14.6604 12.2163 15.0101C14.5537 17.2448 16.9547 19.4556 19.3401 21.6108C19.9933 22.2102 20.654 22.7935 21.3075 23.3768L21.35 23.4175C21.0327 23.6955 20.707 23.9657 20.3972 24.2511Z" fill="#00497C"/>
</svg>
