<svg width="20" height="20" viewBox="0 0 20 20" fill="none" xmlns="http://www.w3.org/2000/svg">
<g clip-path="url(#clip0_8_42)">
<path d="M19.7767 3.02656C19.1972 1.26906 17.5369 0 15.5905 0H4.40945C2.46004 0 0.800312 1.27242 0.223906 3.02965C0.07875 3.46457 0 3.92746 0 4.40945V4.92586V15.5905C0 15.6471 0 15.7037 0.00308594 15.7606C0.0252344 16.3745 0.176563 16.9574 0.425703 17.4834C1.13742 18.9699 2.65504 20 4.40945 20H15.5905C17.3419 20 18.8601 18.9699 19.5718 17.4864V17.4834C19.8241 16.9574 19.9717 16.3779 19.9939 15.7637V15.7606C20 15.7037 20 15.6471 20 15.5905V4.92281V4.40945C20 3.92746 19.9212 3.46117 19.7767 3.02656ZM1.88977 6.57293L6.21738 10.3463L1.88977 14.1163V6.57293ZM15.5905 18.1102H4.40945C3.20988 18.1102 2.20781 17.2724 1.95312 16.1509L7.41449 11.3887L8.07269 11.962C8.62387 12.444 9.31348 12.6864 9.99691 12.6833C10.6834 12.6864 11.3736 12.444 11.9248 11.962L12.583 11.3887L18.0475 16.1543C17.7891 17.2755 16.7877 18.1102 15.5905 18.1102ZM18.1102 14.1197L13.7795 10.3432L18.1102 6.56988V14.1197ZM18.1102 4.48172L10.8883 10.7779C10.633 10.9984 10.318 11.1085 9.99691 11.1085C9.67887 11.1085 9.36391 10.9984 9.10863 10.7779L1.88977 4.48172V4.40945C1.88977 3.01734 3.01734 1.88977 4.40945 1.88977H15.5905C16.9796 1.88977 18.1102 3.01734 18.1102 4.40945V4.48172Z" fill="#00497C"/>
</g>
<defs>
<clipPath id="clip0_8_42">
<rect width="20" height="20" fill="white"/>
</clipPath>
</defs>
</svg>
