<svg width="290" height="79" viewBox="0 0 290 79" fill="none" xmlns="http://www.w3.org/2000/svg">
<path d="M32.9465 43.5687C32.7088 43.6015 32.154 43.6779 32.1213 43.4401C32.0885 43.2024 32.2252 43.0221 32.7391 42.0629C35.6393 36.7373 39.7256 31.8135 40.5463 26.0475C40.6283 25.4709 40.5847 25.1539 40.541 24.8369C40.4427 24.1236 39.9154 23.2272 38.3142 22.1557C35.6528 20.4228 32.2724 19.9194 29.1816 20.3452C26.9626 20.651 25.0796 21.6372 23.6721 22.5579C23.2293 22.8612 22.6964 23.0961 22.2209 23.1616C21.1114 23.3145 18.8571 21.6062 16.4003 21.9447C14.419 22.2176 14.0608 23.7206 13.4592 26.3877C12.6498 29.8909 12.2341 31.5633 10.2937 32.719C9.77171 33.0331 9.55579 33.2244 9.62131 33.6999C9.79601 34.9679 9.91893 35.274 10.5145 36.0803C10.908 36.5914 10.9407 36.8291 10.9626 36.9876C10.9953 37.2254 10.9598 37.5533 10.566 39.3842C8.89778 47.205 8.03058 53.2197 7.43352 61.7813C7.34863 62.9236 7.12179 63.0356 6.72554 63.0902C6.56703 63.112 5.83193 63.0518 4.48466 63.2374C2.34487 63.5322 0.688695 64.4064 0.863395 65.6744C1.09269 67.3387 2.43714 67.7188 2.62276 69.0661C2.71011 69.7001 5.20212 71.3756 6.11474 72.1382C6.57651 72.5591 6.31128 73.5647 7.37149 74.2262C10.7324 76.3473 11.5112 76.7246 13.651 76.4298C14.602 76.2988 14.9708 77.217 18.8922 78.1304C21.0619 78.639 24.7729 78.6122 27.2297 78.2737C33.3321 77.433 37.8389 74.3894 39.6131 70.2687C40.9635 67.1754 42.8606 63.3608 43.4922 61.4972C44.881 57.5103 45.3734 54.0507 44.9695 51.1184C44.8166 50.0089 44.538 49.159 43.9314 48.2735C42.7184 46.5025 39.7537 44.3267 36.5784 43.5529C35.3241 43.2412 33.2635 43.525 32.9465 43.5687ZM32.4675 48.8838C34.211 48.6436 35.08 49.0892 35.4294 51.6252C35.8115 54.399 35.1387 57.722 34.5072 59.5856C31.7048 67.9665 29.7338 73.0026 26.1674 73.494C22.5219 73.9963 20.0052 72.7279 16.8028 70.5849C16.0923 70.1175 16.0596 69.8797 16.0268 69.642C15.863 68.4532 16.2248 61.7007 16.7253 58.886C16.8648 58.14 16.9905 57.8804 17.3075 57.8367C18.8926 57.6183 21.4233 56.0583 23.4458 54.3261C25.1732 52.796 29.2182 49.3315 32.4675 48.8838ZM19.2138 47.6411C18.9624 48.1603 17.8581 49.5238 17.6204 49.5565C17.5411 49.5675 17.4509 49.4991 17.4291 49.3406C17.4073 49.1821 17.689 47.1244 18.4055 44.1185L20.2459 35.7894C20.6041 34.2864 20.9377 33.1906 21.2575 32.5813C21.8288 31.4527 22.3864 30.8106 23.8404 29.6412C26.3849 27.5948 29.9431 26.4585 30.1809 26.4258C30.5771 26.3712 30.6782 26.5188 30.711 26.7565C30.7656 27.1528 29.8797 30.1013 27.9143 34.0061C26.6459 36.5227 22.8411 41.7308 20.8239 44.6736C20.1515 45.6546 19.6594 46.7722 19.2138 47.6411Z" fill="#8598B4"/>
<path d="M73.5637 65.1066C74.7145 63.4945 74.7828 63.4043 74.9413 63.3825C75.0998 63.3606 75.19 63.429 75.2118 63.5875C75.2336 63.746 75.3263 65.5906 75.4682 66.6209C75.6648 68.0474 76.0416 69.6106 76.8831 71.029C77.7246 72.4474 77.8968 71.9392 79.3642 72.6253C80.6622 73.254 82.3454 73.7489 83.6927 73.5633C85.674 73.2903 85.7371 71.9896 85.6497 71.3555C85.5187 70.4045 84.9012 69.4398 84.475 68.6909C83.7347 67.4201 83.4124 66.2532 83.2486 65.0644C83.1394 64.2719 83.1014 62.8235 83.1017 60.4816C83.1327 54.2591 84.6724 47.2635 86.3948 42.1808C86.6244 41.5032 86.7174 41.0058 86.5864 40.0548C86.4663 39.183 85.8925 38.5353 83.9714 38.0732C83.3047 37.9228 82.3237 37.2503 80.9765 37.436C80.3424 37.5233 79.7412 37.8484 79.0825 38.3429C78.2763 38.9386 78.0029 39.2992 77.7486 40.3841C76.1763 47.1419 72.6937 53.5169 68.5691 59.3343C67.4867 60.8563 67.8256 60.9711 65.6389 63.8565C65.0923 64.5779 64.7288 64.8703 64.491 64.903C64.3325 64.9248 64.2998 64.6871 64.2779 64.5286C64.2561 64.3701 64.2371 63.6459 64.2399 63.0802C64.2572 57.3442 66.5266 49.1982 67.3202 42.0631C67.5583 39.6884 68.4903 38.8332 68.9905 38.3605C70.0591 37.325 70.4036 36.3084 70.3054 35.5952C70.1962 34.8027 69.5541 34.2451 69.1388 33.5755C68.4202 32.4632 66.1029 32.0556 64.8349 32.2303C63.1706 32.4596 61.8533 33.4487 61.1999 35.1538C59.0347 40.5397 58.7716 45.6636 57.7406 50.4895C57.4507 51.9022 57.4888 53.3506 57.1496 55.5777C56.7283 58.3815 56.1785 62.0105 56.5606 64.7843C56.9209 67.3996 57.2513 69.2114 60.514 70.6193C62.9187 71.6609 65.9056 71.6531 66.4603 71.5767C68.5209 71.2928 71.3989 68.1506 73.5637 65.1066Z" fill="#8598B4"/>
<path d="M111.272 29.951C111.671 29.3307 111.887 29.1395 112.046 29.1176C112.283 29.0849 112.475 29.3008 112.677 29.596C112.879 29.8911 113.013 30.2765 113.078 30.752C113.264 32.0993 112.553 33.9738 112.255 34.7417C112.129 35.0013 112.105 35.4084 112.159 35.8047C112.269 36.5972 112.807 37.5729 113.867 38.2344C114.837 38.8275 116.43 39.2541 117.936 39.0466C118.728 38.9374 118.955 38.8254 119.537 37.7761C120.907 35.4071 121.224 33.0214 120.919 30.8024C120.711 29.2966 119.976 26.8944 118.523 25.7218C116.517 24.06 114.102 22.9392 109.188 23.6162C107.207 23.8892 104.107 26.012 102.38 29.8841C100.893 33.1577 100.564 37.806 100.859 39.9458C101.023 41.1346 102.841 48.475 104.647 53.9599C106.33 59.1387 106.474 59.6033 106.518 59.9203C106.54 60.0788 106.551 60.1581 106.392 60.1799C106.234 60.2018 105.873 59.9284 105.231 59.3709C103.214 57.6298 101.723 55.0088 100.215 53.44C99.9331 53.1558 99.403 52.825 98.1378 52.434C97.5503 52.2727 96.9054 52.2808 96.1128 52.39C93.4976 52.7503 92.5243 55.0648 92.6663 56.0951C92.7209 56.4913 93.0241 56.9341 93.4176 57.4452C96.5542 61.4546 100.937 65.1308 106.801 66.6648C107.807 66.93 108.452 66.9219 109.165 66.8237C112.811 66.3214 115.317 62.8266 115.12 61.4001C114.858 59.498 113.722 55.9398 112.397 51.6C110.338 44.858 109.251 40.4854 108.945 38.2664C108.694 36.4436 108.905 35.0418 109.501 33.506C109.971 32.2299 110.611 31.0112 111.272 29.951Z" fill="#8598B4"/>
<path d="M142.012 50.9116C139.728 53.0837 138.558 53.9717 137.845 54.07C137.211 54.1573 137.123 53.5233 136.992 52.5723C136.621 49.8778 137.548 45.47 137.756 44.6338C138.483 41.7071 139.971 36.0916 140.835 32.9846C141.376 31.0526 145.022 25.8664 144.586 22.6963C144.476 21.9038 143.96 21.0867 143.441 20.8352C142.053 20.1381 140.615 20.2554 139.664 20.3864C137.841 20.6375 136.095 21.4434 135.474 23.3863C133.44 29.7233 131.986 35.5766 130.315 41.6212C129.992 42.7962 129.85 44.1079 129.503 45.6901C129.073 47.8489 128.813 50.0651 129.119 52.2842C129.654 56.1675 131.635 58.2365 133.1 59.4883C135.026 61.161 136.936 61.5439 138.759 61.2928C142.087 60.8342 145.056 57.7603 146.239 56.3859L149.074 52.9267C150.109 51.6534 150.09 50.9292 150.003 50.2952C149.85 49.1857 148.815 48.117 145.962 48.5101C143.98 48.7831 142.876 50.1465 142.012 50.9116ZM144.233 2.55593C142.331 2.81798 140.733 3.52279 140.003 4.67316C139.41 5.64319 139.267 6.95489 139.442 8.22292C139.584 9.25318 139.874 10.1824 140.469 10.9886C140.975 11.7265 142.745 12.8554 145.202 12.5169C147.738 12.1675 149.452 8.78194 150.204 7.79007C150.477 7.42939 150.537 6.69428 150.45 6.06027C150.319 5.10925 149.849 4.04341 149.037 3.42842C147.865 2.54009 145.66 2.35939 144.233 2.55593Z" fill="#8598B4"/>
<path d="M161.5 47.7421C161.055 48.611 160.828 48.7231 160.749 48.734C160.669 48.7449 160.659 48.6656 160.648 48.5864C160.626 48.4279 160.672 48.1792 161.227 45.7608C162.8 39.003 164.077 34.7893 164.787 32.9147C166.37 28.5781 167.614 26.4686 169.096 24.3264C169.962 22.9956 170.807 21.5064 170.632 20.2384C170.556 19.6836 170.389 19.0605 169.985 18.4702C169.165 17.2103 167.435 16.9641 165.692 17.2043C164.186 17.4117 162.803 17.9253 162.245 18.5674C161.756 19.1193 161.548 19.9555 161.229 20.5649C158.462 26.2759 157.153 30.2518 155.608 36.0368C154.812 39.0537 153.109 44.8605 153.177 47.1123C153.225 48.6399 152.741 50.4025 152.982 52.146C153.102 53.0177 153.64 53.9934 154.012 54.346C155.036 55.3354 157.463 56.5355 159.337 57.2463C159.936 57.4868 161.168 57.6401 161.961 57.5309C163.308 57.3453 164.273 56.7278 164.74 56.0174C165.607 54.6866 166.399 54.5775 167.484 52.4898L170.819 46.2159C171.459 44.9972 171.596 44.8169 171.754 44.795C171.833 44.7841 171.924 44.8525 171.956 45.0902C172 45.4072 172.084 46.6069 172.161 47.1617C172.412 48.9844 173.013 51.0013 174.251 52.3651C175.106 53.2971 176.631 53.8139 177.893 54.7705C179.155 55.7272 181.735 55.6948 183.32 55.4764C185.064 55.2362 185.804 54.1651 185.662 53.1348C185.542 52.263 184.936 51.3775 183.897 50.8745C181.821 49.8686 181.348 49.3684 181.102 48.7562C180.498 47.305 180.187 46.2174 180.111 45.6626C179.892 44.0776 179.833 40.1288 180.101 38.5575C180.755 34.5104 181.766 31.3023 183.907 26.3235C184.147 25.7251 184.459 24.4708 184.415 24.1538C184.306 23.3613 183.489 21.5357 181.238 21.6037C180.355 21.6445 179.792 21.076 178.128 21.3053C176.463 21.5346 176.141 22.7097 175.381 25.3986C174.943 26.9124 174.202 27.9836 170.056 33.6424C166.935 37.9488 164.105 42.6186 161.5 47.7421Z" fill="#8598B4"/>
<path d="M224.843 40.3879C226.915 37.8413 228.022 35.9122 229.626 34.076C230.105 33.4448 230.072 33.2071 229.865 31.7013C229.701 30.5125 228.201 29.5886 226.616 29.807C225.982 29.8944 225.369 30.1402 224.642 30.7249C220.928 33.6593 218.099 38.3291 213.579 41.8592C212.704 42.545 210.056 45.0095 207.678 45.337C207.123 45.4135 206.626 45.3205 206.118 45.1482C205.361 44.9295 204.44 43.522 204.374 43.0465C204.32 42.6502 204.388 42.5601 205.115 41.9754C211.511 36.8142 216.387 30.0049 220.471 23.3049C221.988 20.8347 223.765 16.1483 223.328 12.9783C223.044 10.9177 222.003 8.63844 219.426 8.10516C217.595 7.71136 215.57 7.66732 213.985 7.8857C209.785 8.4644 206.956 10.7923 205.464 12.8553C200.462 19.9241 196.17 27.4604 194.975 35.7814C194.811 36.9346 194.794 37.9867 194.947 39.0962C195.198 40.919 195.857 42.7664 196.742 44.5019C197.963 46.9178 199.695 48.9403 201.818 49.6976C205.726 51.0974 208.483 51.7673 210.861 51.4398C212.208 51.2541 213.205 50.8744 214.228 50.0876C219.781 45.8499 222.771 42.9345 224.843 40.3879ZM214.889 15.0292C214.987 15.7425 214.815 16.2508 214.071 17.8876C213.328 19.5244 213.724 19.4698 212.754 21.2186C210.881 24.626 208.454 28.1099 205.199 32.0309C204.299 33.1239 204.141 33.1457 203.982 33.1675C203.903 33.1785 203.734 33.1211 203.712 32.9625C203.679 32.7248 203.715 32.3969 204.278 30.6234C206.025 25.1336 208.567 21.3109 211.437 17.5237C213.009 15.4498 214.031 14.6629 214.427 14.6083C214.665 14.5756 214.834 14.633 214.889 15.0292Z" fill="#8598B4"/>
<path d="M248.538 11.0393C248.937 10.419 249.153 10.2278 249.311 10.2059C249.549 10.1732 249.74 10.3891 249.943 10.6843C250.145 10.9794 250.279 11.3648 250.344 11.8403C250.53 13.1876 249.819 15.0621 249.521 15.83C249.395 16.0896 249.371 16.4967 249.425 16.893C249.534 17.6855 250.073 18.6612 251.133 19.3227C252.103 19.9158 253.696 20.3424 255.202 20.1349C255.994 20.0257 256.221 19.9137 256.803 18.8644C258.173 16.4954 258.49 14.1097 258.184 11.8907C257.977 10.3849 257.242 7.98271 255.789 6.81014C253.783 5.14832 251.367 4.02752 246.454 4.70448C244.473 4.97745 241.373 7.10032 239.646 10.9724C238.159 14.246 237.83 18.8943 238.125 21.0341C238.288 22.2229 240.107 29.5633 241.913 35.0482C243.595 40.227 243.74 40.6916 243.784 41.0086C243.806 41.1671 243.817 41.2464 243.658 41.2682C243.5 41.2901 243.139 41.0167 242.497 40.4592C240.48 38.7181 238.989 36.0971 237.48 34.5283C237.199 34.2441 236.669 33.9133 235.404 33.5223C234.816 33.361 234.171 33.3691 233.379 33.4783C230.763 33.8386 229.79 36.1531 229.932 37.1834C229.987 37.5796 230.29 38.0224 230.683 38.5335C233.82 42.5429 238.203 46.2191 244.067 47.7531C245.073 48.0183 245.718 48.0102 246.431 47.912C250.076 47.4097 252.583 43.9149 252.386 42.4884C252.124 40.5863 250.988 37.0281 249.663 32.6883C247.604 25.9463 246.517 21.5737 246.211 19.3547C245.96 17.5319 246.171 16.1301 246.767 14.5943C247.237 13.3182 247.876 12.0995 248.538 11.0393Z" fill="#8598B4"/>
<path d="M279.913 6.71658C280.313 6.0963 280.528 5.90505 280.687 5.88321C280.925 5.85046 281.116 6.06637 281.318 6.36154C281.52 6.6567 281.654 7.04204 281.72 7.51755C281.905 8.86482 281.194 10.7394 280.896 11.5072C280.771 11.7668 280.746 12.174 280.801 12.5703C280.91 13.3628 281.448 14.3384 282.508 14.9999C283.478 15.5931 285.071 16.0196 286.577 15.8122C287.37 15.703 287.597 15.591 288.179 14.5417C289.548 12.1726 289.866 9.78699 289.56 7.56795C289.352 6.06218 288.618 3.65998 287.164 2.4874C285.158 0.825589 282.743 -0.295214 277.829 0.381751C275.848 0.654721 272.749 2.77759 271.021 6.64963C269.534 9.92323 269.205 14.5716 269.5 16.7114C269.664 17.9001 271.483 25.2406 273.288 30.7255C274.971 35.9043 275.116 36.3689 275.159 36.6859C275.181 36.8444 275.192 36.9237 275.034 36.9455C274.875 36.9673 274.514 36.694 273.872 36.1364C271.856 34.3953 270.364 31.7744 268.856 30.2056C268.574 29.9213 268.044 29.5906 266.779 29.1996C266.192 29.0383 265.547 29.0464 264.754 29.1556C262.139 29.5159 261.166 31.8304 261.308 32.8607C261.362 33.2569 261.665 33.6997 262.059 34.2107C265.196 38.2202 269.578 41.8964 275.443 43.4304C276.448 43.6956 277.093 43.6875 277.806 43.5892C281.452 43.087 283.958 39.5922 283.762 38.1656C283.5 36.2636 282.363 32.7054 281.039 28.3656C278.979 21.6236 277.892 17.251 277.587 15.032C277.335 13.2092 277.546 11.8073 278.142 10.2716C278.612 8.99549 279.252 7.77678 279.913 6.71658Z" fill="#8598B4"/>
</svg>
